<svg width="167" height="36" viewBox="0 0 167 36" fill="none" xmlns="http://www.w3.org/2000/svg">
<path d="M44.0281 27.9048C43.1892 27.7724 42.4323 27.5769 41.7448 27.3309V24.4169C43.3721 24.9467 44.9111 25.2053 46.3681 25.2053C47.6359 25.2053 48.5756 24.9593 49.2001 24.4674C49.8182 23.9754 50.1272 23.2627 50.1272 22.3166C50.1272 21.7868 50.0326 21.3452 49.8434 20.9794C49.6542 20.6136 49.3388 20.2919 48.8973 20.0081C48.4558 19.7243 47.8566 19.4531 47.0871 19.1945L45.8509 18.7782C42.8297 17.7501 41.3159 15.8327 41.3159 13.0385C41.3159 11.7897 41.5872 10.7174 42.1359 9.82181C42.6846 8.92618 43.4983 8.23868 44.5831 7.75932C45.668 7.28628 47.0114 7.0466 48.6009 7.0466C49.3199 7.0466 50.0389 7.09075 50.7454 7.18536C51.4518 7.27997 52.0762 7.40611 52.6123 7.57641V10.4778C51.4959 10.1246 50.2534 9.94796 48.891 9.94796C46.1347 9.94796 44.7534 10.8941 44.7534 12.7799C44.7534 13.2908 44.8417 13.7134 45.012 14.054C45.1823 14.3946 45.4725 14.7037 45.8698 14.9686C46.2735 15.2398 46.8285 15.4921 47.5413 15.7317L48.7775 16.148C50.348 16.6778 51.5401 17.4095 52.3537 18.3493C53.1611 19.2891 53.571 20.5127 53.571 22.0201C53.571 23.2879 53.2935 24.3791 52.7322 25.2873C52.1708 26.1956 51.3572 26.8957 50.2849 27.3813C49.2127 27.867 47.9197 28.1067 46.4122 28.1067C45.6617 28.1067 44.867 28.0436 44.0281 27.9048Z" fill="white"/>
<path d="M55.8606 10.6797C55.5516 10.3896 55.4002 9.97959 55.4002 9.44977C55.4002 8.91996 55.5516 8.50999 55.8606 8.21354C56.1697 7.92341 56.6238 7.77203 57.223 7.77203C57.8222 7.77203 58.2826 7.92341 58.5917 8.21985C58.9007 8.51629 59.0584 8.92627 59.0584 9.44977C59.0584 9.97959 58.907 10.3896 58.598 10.6797C58.2889 10.9698 57.8348 11.1149 57.223 11.1149C56.6238 11.1149 56.1697 10.9698 55.8606 10.6797Z" fill="white"/>
<path d="M59.0269 12.7044H55.6525V27.8419H59.0269V12.7044Z" fill="white"/>
<path d="M62.0164 12.7043H64.8168L65.0691 14.3253H65.252C65.7314 13.7261 66.2991 13.2656 66.9487 12.944C67.5984 12.6223 68.3174 12.4646 69.1058 12.4646C70.3925 12.4646 71.4143 12.8683 72.1648 13.6756C72.9154 14.483 73.2939 15.7886 73.2939 17.5798V27.8355H69.9384V17.8384C69.9384 16.987 69.7681 16.3815 69.4275 16.0219C69.0869 15.6624 68.6012 15.4795 67.9705 15.4795C67.4911 15.4795 67.0055 15.5993 66.5261 15.8327C66.0468 16.0661 65.662 16.4256 65.3719 16.9113V27.8481H62.0164V12.7043V12.7043Z" fill="white"/>
<path d="M80.2068 31.5253C81.4935 31.5253 82.4396 31.2288 83.0514 30.6359C83.6632 30.0431 83.966 29.0465 83.966 27.64V26.3091H83.802C83.4803 26.839 83.0325 27.2552 82.4712 27.5706C81.9098 27.886 81.2665 28.0436 80.5411 28.0436C79.6329 28.0436 78.8066 27.7914 78.0561 27.2868C77.3055 26.7822 76.7 25.9685 76.2459 24.8522C75.7854 23.7358 75.5584 22.304 75.5584 20.5632C75.5584 17.8637 76.1639 15.839 77.3686 14.5019C78.5733 13.1584 80.4024 12.4835 82.8559 12.4772C83.6128 12.4772 84.3949 12.5403 85.2022 12.6728C86.0096 12.8052 86.716 12.9755 87.3278 13.2026V27.0912C87.3278 29.5952 86.7601 31.4181 85.6374 32.5471C84.5084 33.6761 82.7928 34.2374 80.4907 34.2374C80.3708 34.2374 80.3267 34.2374 80.2068 34.2311V31.5253ZM83.0641 24.9215C83.4488 24.7323 83.7515 24.4674 83.9723 24.1394V15.2588C83.5119 15.1578 83.0451 15.1074 82.5847 15.1074C81.3926 15.1074 80.497 15.4984 79.8978 16.2868C79.2986 17.0753 79.0021 18.3935 79.0021 20.2541C79.0021 21.5471 79.1157 22.5626 79.3491 23.2879C79.5824 24.0133 79.9041 24.5179 80.3141 24.7954C80.724 25.0729 81.2475 25.2117 81.8783 25.2117C82.2819 25.2117 82.6793 25.1171 83.0641 24.9215Z" fill="white"/>
<path d="M90.3237 27.8481V5.41936H93.6792V27.8418H90.3237V27.8481Z" fill="white"/>
<path d="M107.379 21.3516H99.4567C99.4945 22.3797 99.6459 23.1807 99.9171 23.7673C100.188 24.3476 100.598 24.7638 101.153 25.0161C101.708 25.2684 102.446 25.3883 103.374 25.3883C104.326 25.3883 105.43 25.2117 106.679 24.8585V27.5895C106.004 27.7724 105.373 27.9112 104.786 27.9932C104.2 28.0752 103.594 28.1193 102.976 28.1193C101.368 28.1193 100.056 27.8544 99.0404 27.3183C98.0249 26.7822 97.2744 25.9433 96.7824 24.7954C96.2904 23.6411 96.0444 22.1211 96.0444 20.2226C96.0444 17.6303 96.5553 15.694 97.5771 14.401C98.5989 13.108 100.043 12.4646 101.917 12.4646C105.562 12.4646 107.385 15.0821 107.385 20.3172V21.3516H107.379ZM100.598 15.1641C100.251 15.4227 99.9739 15.8769 99.7721 16.5265C99.5702 17.1762 99.463 18.0655 99.4504 19.2071H104.212C104.206 18.0718 104.105 17.1762 103.922 16.5265C103.739 15.8769 103.481 15.4227 103.146 15.1641C102.812 14.9055 102.396 14.7731 101.898 14.7731C101.38 14.7731 100.945 14.9055 100.598 15.1641Z" fill="white"/>
<path d="M111.856 27.9049C111.017 27.7724 110.26 27.5769 109.572 27.3309V24.4169C111.2 24.9467 112.739 25.2053 114.196 25.2053C115.463 25.2053 116.403 24.9594 117.028 24.4674C117.646 23.9754 117.955 23.2627 117.955 22.3166C117.955 21.7868 117.86 21.3453 117.671 20.9795C117.482 20.6136 117.166 20.292 116.725 20.0081C116.283 19.7243 115.684 19.4531 114.915 19.1945L113.678 18.7782C110.651 17.7438 109.143 15.8264 109.143 13.0323C109.143 11.7834 109.415 10.7112 109.963 9.81554C110.512 8.9199 111.326 8.23241 112.411 7.75306C113.495 7.28001 114.839 7.04033 116.428 7.04033C117.147 7.04033 117.866 7.08448 118.573 7.17909C119.279 7.2737 119.904 7.39985 120.44 7.57014V10.4715C119.323 10.1183 118.081 9.94169 116.719 9.94169C113.962 9.94169 112.581 10.8878 112.581 12.7737C112.581 13.2846 112.669 13.7071 112.84 14.0477C113.01 14.3883 113.3 14.6974 113.697 14.9623C114.101 15.2335 114.656 15.4858 115.369 15.7255L116.605 16.1418C118.176 16.6716 119.368 17.4032 120.181 18.343C120.989 19.2828 121.399 20.5064 121.399 22.0139C121.399 23.2816 121.121 24.3728 120.56 25.281C119.998 26.1893 119.185 26.8894 118.112 27.3751C117.04 27.8607 115.747 28.1004 114.24 28.1004C113.483 28.1067 112.688 28.0436 111.856 27.9049Z" fill="white"/>
<path d="M131.276 25.0414V27.8418C130.544 28.0184 129.787 28.1067 128.999 28.1067C127.416 28.1067 126.217 27.6905 125.391 26.8516C124.565 26.0127 124.155 24.6819 124.155 22.8654V15.3849H121.84V12.7043H124.155L124.754 7.30527H127.516V12.7043H131.149V15.3849H127.516V22.4617C127.516 23.1555 127.592 23.7042 127.75 24.1016C127.908 24.499 128.154 24.7828 128.488 24.9531C128.822 25.1234 129.27 25.2117 129.831 25.2117C130.172 25.2117 130.651 25.1549 131.276 25.0414Z" fill="white"/>
<path d="M133.824 26.2271C132.777 24.9656 132.253 22.9978 132.253 20.3361C132.253 15.0884 134.278 12.4709 138.321 12.4709C140.264 12.4709 141.759 13.1142 142.812 14.4009C143.859 15.6876 144.389 17.6555 144.389 20.3108C144.389 25.5207 142.364 28.1256 138.327 28.1256C136.372 28.1256 134.871 27.4885 133.824 26.2271ZM139.759 25.1107C140.131 24.8143 140.421 24.2844 140.63 23.5276C140.838 22.7707 140.932 21.7174 140.932 20.3613C140.932 18.9737 140.831 17.8888 140.63 17.113C140.428 16.3372 140.138 15.7948 139.753 15.4921C139.368 15.1893 138.895 15.0316 138.321 15.0316C137.741 15.0316 137.255 15.183 136.877 15.4858C136.498 15.7885 136.208 16.3183 136.006 17.0878C135.804 17.8573 135.704 18.9169 135.704 20.2793C135.704 21.6606 135.804 22.7328 136.006 23.496C136.208 24.2655 136.498 24.7953 136.877 25.0981C137.249 25.4008 137.735 25.5522 138.327 25.5522C138.908 25.5585 139.381 25.4071 139.759 25.1107Z" fill="white"/>
<path d="M146.728 12.7043H149.504L149.769 14.7857H149.933C150.305 14.0099 150.803 13.4359 151.44 13.0701C152.071 12.7043 152.79 12.5214 153.597 12.5214C153.919 12.5214 154.24 12.5466 154.556 12.6034V15.7381C154.24 15.6813 153.856 15.6561 153.389 15.6561C152.714 15.6561 152.077 15.8138 151.472 16.1228C150.872 16.4319 150.406 16.8608 150.084 17.4095V27.8418H146.728V12.7043Z" fill="white"/>
<path d="M166.698 21.3516H158.776C158.814 22.3797 158.965 23.1807 159.236 23.7673C159.507 24.3476 159.917 24.7638 160.472 25.0161C161.027 25.2684 161.765 25.3883 162.693 25.3883C163.645 25.3883 164.749 25.2117 165.998 24.8585V27.5895C165.323 27.7724 164.692 27.9112 164.105 27.9932C163.519 28.0752 162.913 28.1193 162.295 28.1193C160.687 28.1193 159.375 27.8544 158.359 27.3183C157.344 26.7822 156.593 25.9433 156.101 24.7954C155.609 23.6411 155.364 22.1211 155.364 20.2226C155.364 17.6303 155.874 15.694 156.896 14.401C157.918 13.108 159.362 12.4646 161.236 12.4646C164.881 12.4646 166.704 15.0821 166.704 20.3172V21.3516H166.698ZM159.917 15.1641C159.57 15.4227 159.293 15.8769 159.091 16.5265C158.889 17.1762 158.782 18.0655 158.769 19.2071H163.531C163.525 18.0718 163.424 17.1762 163.241 16.5265C163.058 15.8769 162.8 15.4227 162.466 15.1641C162.131 14.9055 161.715 14.7731 161.217 14.7731C160.699 14.7731 160.264 14.9055 159.917 15.1641Z" fill="white"/>
<path d="M18.7134 0.735992C22.4372 1.77169 25.83 4.38165 27.2368 7.5716C29.3884 12.7501 28.8919 19.2957 26.5334 23.1899C24.5474 26.3799 21.4855 28.0784 17.9686 28.037C12.5069 27.9956 8.07972 23.6456 8.03834 18.1772C8.03834 12.7087 12.3414 8.19302 17.9686 8.19302C18.8789 8.19302 20.1913 8.31926 21.6809 8.94068C21.6809 8.94068 20.61 8.30642 17.8598 7.88034C9.95699 6.84465 0.63203 12.833 2.78358 26.6285C5.76266 31.9312 11.4725 35.5355 17.9686 35.494C27.5264 35.4526 35.3465 27.6227 35.3051 18.0114C35.3051 8.81444 27.8161 0.98456 18.7134 0.735992Z" fill="url(#paint0_linear)"/>
<path d="M25.2093 8.06873C23.8853 5.29306 21.1545 3.09738 17.803 2.22739C17.0582 2.02025 16.2721 1.93739 15.4032 1.89597C14.1205 1.89597 12.8793 2.06168 11.5966 2.39311C8.41065 3.34595 6.17634 5.2102 4.85231 6.66018C3.15589 8.60729 2.03874 10.6373 1.37672 12.6672C1.37672 12.7087 1.33535 12.7501 1.33535 12.8329C1.29397 12.9987 1.12847 13.4958 1.12847 13.6201C1.08709 13.7029 1.08709 13.8272 1.04572 13.9101C1.00434 14.0758 0.962963 14.2415 0.921587 14.4072C0.921587 14.4486 0.921587 14.4901 0.880211 14.5315C-0.195565 19.8757 1.59156 24.6716 2.66734 26.453C2.93641 26.8986 3.15737 27.2703 3.37881 27.6114C0.937625 14.3544 7.95551 8.02731 15.9411 7.86159C20.1201 7.77874 24.299 9.47728 26.3265 12.8744C26.2023 11.0101 26.0782 9.97442 25.2093 8.06873Z" fill="url(#paint1_linear)"/>
<defs>
<linearGradient id="paint0_linear" x1="25.2692" y1="-8.30271" x2="-6.3599" y2="8.74532" gradientUnits="userSpaceOnUse">
<stop stop-color="#FF7BFF"/>
<stop offset="0.350158" stop-color="#AA00FF"/>
<stop offset="0.998876" stop-color="#8800CC"/>
</linearGradient>
<linearGradient id="paint1_linear" x1="9.89491" y1="-3.17118" x2="29.3483" y2="13.4609" gradientUnits="userSpaceOnUse">
<stop offset="0.0354358" stop-color="#FF7BFF"/>
<stop offset="0.576537" stop-color="#8800CC"/>
<stop offset="1" stop-color="#311B92"/>
</linearGradient>
</defs>
</svg>
